<svg width="24" height="24" viewBox="0 0 24 24" fill="none" xmlns="http://www.w3.org/2000/svg">
<path fill-rule="evenodd" clip-rule="evenodd" d="M1 7.71012V19C1 19.5523 1.44772 20 2 20H22C22.5523 20 23 19.5523 23 19V7.71012L13.2738 15.7448C12.5344 16.3556 11.4656 16.3556 10.7262 15.7448L1 7.71012ZM1 5.13379C1.04743 5.16125 1.09323 5.19298 1.13688 5.22904L12 14.2029L22.8631 5.22904C22.9068 5.19298 22.9526 5.16125 23 5.13379V5C23 4.44772 22.5523 4 22 4H2C1.44772 4 1 4.44772 1 5V5.13379Z" fill="white"/>
</svg>
