<svg width="26" height="24" viewBox="0 0 26 24" fill="none" xmlns="http://www.w3.org/2000/svg">
<ellipse cx="9.01247" cy="5.87786" rx="3.3821" ry="3.3821" fill="white"/>
<path d="M0.557129 16.8113V18.6189C0.557129 19.2872 1.09886 19.8289 1.76713 19.8289H16.2576C16.9259 19.8289 17.4676 19.2872 17.4676 18.6189V16.8113C17.4676 16.1431 16.9259 15.6013 16.2576 15.6013H1.76713C1.09886 15.6013 0.557129 16.1431 0.557129 16.8113Z" fill="white"/>
<path d="M0.557129 16.7604C0.557129 13.085 3.53667 10.1054 7.21213 10.1054H10.8126C14.4881 10.1054 17.4676 13.085 17.4676 16.7604V17.7152H0.557129V16.7604Z" fill="white"/>
<circle cx="17.0001" cy="7.88113" r="3.388" fill="white"/>
<path d="M8.53003 18.8316V20.6466C8.53003 21.3148 9.07177 21.8566 9.74003 21.8566H24.26C24.9283 21.8566 25.47 21.3148 25.47 20.6466V18.8316C25.47 18.1633 24.9283 17.6216 24.26 17.6216H9.74003C9.07176 17.6216 8.53003 18.1633 8.53003 18.8316Z" fill="white"/>
<path d="M8.53003 18.7711C8.53003 15.0957 11.5096 12.1161 15.185 12.1161H18.815C22.4905 12.1161 25.47 15.0957 25.47 18.7711V19.7391H8.53003V18.7711Z" fill="white"/>
</svg>
